<?xml version="1.0" encoding="UTF-8" standalone="no"?>
<!-- Created with Inkscape (http://www.inkscape.org/) -->

<svg
   width="210mm"
   height="220mm"
   viewBox="0 0 210 220"
   version="1.1"
   id="svg5"
   xml:space="preserve"
   inkscape:version="1.2.2 (732a01da63, 2022-12-09)"
   sodipodi:docname="trigger-scope.svg"
   inkscape:export-filename="trigger-scope.png"
   inkscape:export-xdpi="96"
   inkscape:export-ydpi="96"
   xmlns:inkscape="http://www.inkscape.org/namespaces/inkscape"
   xmlns:sodipodi="http://sodipodi.sourceforge.net/DTD/sodipodi-0.dtd"
   xmlns="http://www.w3.org/2000/svg"
   xmlns:svg="http://www.w3.org/2000/svg"><sodipodi:namedview
     id="namedview7"
     pagecolor="#ffffff"
     bordercolor="#000000"
     borderopacity="0.25"
     inkscape:showpageshadow="2"
     inkscape:pageopacity="0.0"
     inkscape:pagecheckerboard="0"
     inkscape:deskcolor="#d1d1d1"
     inkscape:document-units="mm"
     showgrid="false"
     inkscape:zoom="1"
     inkscape:cx="469.5"
     inkscape:cy="349"
     inkscape:window-width="2400"
     inkscape:window-height="1261"
     inkscape:window-x="-9"
     inkscape:window-y="-9"
     inkscape:window-maximized="1"
     inkscape:current-layer="layer1"
     showguides="true" /><defs
     id="defs2" /><g
     inkscape:label="Layer 1"
     inkscape:groupmode="layer"
     id="layer1"><rect
       style="fill:#ffffff;fill-opacity:1;stroke:none;stroke-width:1.84834;stroke-linecap:square;stroke-dasharray:none;stroke-opacity:1"
       id="rect155"
       width="210.20018"
       height="187.72083"
       x="0"
       y="0"
       ry="0" /><rect
       style="fill:#ff2929;fill-opacity:1;stroke-width:0.954776;stroke-linecap:round"
       id="rect1930"
       width="56.15118"
       height="93.881424"
       x="146.27151"
       y="28.157013"
       ry="10.278562" /><rect
       style="fill:none;stroke:#000000;stroke-width:1.87948;stroke-linecap:round;stroke-dasharray:none;stroke-opacity:1"
       id="rect15"
       width="64.789993"
       height="179.35313"
       x="141.21004"
       y="4.5643454"
       ry="4.0625772"
       rx="0" /><rect
       style="fill:none;stroke:#000000;stroke-width:1.87948;stroke-linecap:round;stroke-dasharray:none;stroke-opacity:1"
       id="rect16"
       width="64.789986"
       height="166.79631"
       x="141.21004"
       y="17.121172"
       ry="4.0625772"
       rx="0" /><text
       xml:space="preserve"
       style="font-size:10.6086px;line-height:1;text-align:center;text-anchor:middle;fill:#000000;fill-opacity:1;stroke:none;stroke-width:4.21291;stroke-linecap:round;stroke-dasharray:none;stroke-opacity:1"
       x="172.71938"
       y="13.618908"
       id="text16"><tspan
         sodipodi:role="line"
         id="tspan16"
         style="font-style:normal;font-variant:normal;font-weight:normal;font-stretch:normal;font-size:10.6086px;font-family:Calibri;-inkscape-font-specification:Calibri;fill:#000000;fill-opacity:1;stroke:none;stroke-width:4.21291"
         x="172.71938"
         y="13.618908">Trigger</tspan></text><rect
       style="fill:none;stroke:#000000;stroke-width:1.87948;stroke-linecap:round;stroke-dasharray:none;stroke-opacity:1"
       id="rect17"
       width="48.080704"
       height="24.626719"
       x="150.41673"
       y="36.528282"
       ry="4.0625772"
       rx="0" /><text
       xml:space="preserve"
       style="font-size:14.5868px;line-height:1;text-align:center;text-anchor:middle;fill:#000000;fill-opacity:1;stroke:none;stroke-width:4.21291;stroke-linecap:round;stroke-dasharray:none;stroke-opacity:1"
       x="174.67776"
       y="52.97752"
       id="text17"><tspan
         sodipodi:role="line"
         id="tspan17"
         style="font-style:normal;font-variant:normal;font-weight:normal;font-stretch:normal;font-size:14.5868px;font-family:Calibri;-inkscape-font-specification:Calibri;fill:#000000;fill-opacity:1;stroke:none;stroke-width:4.21291"
         x="174.67776"
         y="52.97752">Menu</tspan></text><rect
       style="fill:none;stroke:#000000;stroke-width:1.87948;stroke-linecap:round;stroke-dasharray:none;stroke-opacity:1"
       id="rect18"
       width="48.080704"
       height="24.626719"
       x="150.41673"
       y="146.09201"
       ry="4.0625772"
       rx="0" /><text
       xml:space="preserve"
       style="font-size:10.6086px;line-height:1;text-align:center;text-anchor:middle;fill:#000000;fill-opacity:1;stroke:none;stroke-width:4.21291;stroke-linecap:round;stroke-dasharray:none;stroke-opacity:1"
       x="174.67776"
       y="161.54668"
       id="text18"><tspan
         sodipodi:role="line"
         id="tspan18"
         style="font-style:normal;font-variant:normal;font-weight:normal;font-stretch:normal;font-size:10.6086px;font-family:Calibri;-inkscape-font-specification:Calibri;fill:#000000;fill-opacity:1;stroke:none;stroke-width:4.21291"
         x="174.67776"
         y="161.54668">Force Trig</tspan></text><text
       xml:space="preserve"
       style="font-size:10.6086px;line-height:1;text-align:center;text-anchor:middle;fill:#000000;fill-opacity:1;stroke:none;stroke-width:4.21291;stroke-linecap:round;stroke-dasharray:none;stroke-opacity:1"
       x="173.50508"
       y="79.625183"
       id="text19"><tspan
         sodipodi:role="line"
         id="tspan19"
         style="font-style:normal;font-variant:normal;font-weight:normal;font-stretch:normal;font-size:10.6086px;font-family:Calibri;-inkscape-font-specification:Calibri;fill:#000000;fill-opacity:1;stroke:none;stroke-width:4.21291"
         x="173.50508"
         y="79.625183">Level</tspan></text><circle
       style="fill:none;fill-opacity:1;stroke:#000000;stroke-width:1.87948;stroke-linecap:round;stroke-dasharray:none;stroke-opacity:1"
       id="path19"
       cx="173.91129"
       cy="100.84827"
       r="9.8841887" /><circle
       style="fill:none;fill-opacity:1;stroke:#000000;stroke-width:1.87948;stroke-linecap:round;stroke-dasharray:none;stroke-opacity:1"
       id="circle19"
       cx="173.91129"
       cy="100.84827"
       r="16.225925" /><path
       sodipodi:type="star"
       style="fill:none;fill-opacity:1;stroke:#000000;stroke-width:1;stroke-linecap:round;stroke-dasharray:none;stroke-opacity:1"
       id="path20"
       inkscape:flatsided="false"
       sodipodi:sides="3"
       sodipodi:cx="180.51198"
       sodipodi:cy="61.085674"
       sodipodi:r1="1.0120312"
       sodipodi:r2="1.6867187"
       sodipodi:arg1="1.5707963"
       sodipodi:arg2="2.6179939"
       inkscape:rounded="0.14"
       inkscape:randomized="0"
       d="m 180.51198,62.097705 c -0.20586,0 -1.35781,0.0096 -1.46074,-0.168671 -0.10293,-0.178283 0.48136,-1.171093 0.58429,-1.349375 0.10293,-0.178283 0.67059,-1.180703 0.87645,-1.180703 0.20586,0 0.77351,1.00242 0.87644,1.180703 0.10293,0.178282 0.68723,1.171092 0.5843,1.349375 -0.10293,0.178282 -1.25488,0.168671 -1.46074,0.168671 z"
       inkscape:transform-center-y="0.79253804"
       transform="matrix(1.8794794,0,0,1.8794794,-165.291,-0.10481794)" /><path
       sodipodi:type="star"
       style="fill:none;fill-opacity:1;stroke:#000000;stroke-width:1;stroke-linecap:round;stroke-dasharray:none;stroke-opacity:1"
       id="path21"
       inkscape:flatsided="false"
       sodipodi:sides="3"
       sodipodi:cx="180.51198"
       sodipodi:cy="61.085674"
       sodipodi:r1="1.0120312"
       sodipodi:r2="1.6867187"
       sodipodi:arg1="1.5707963"
       sodipodi:arg2="2.6179939"
       inkscape:rounded="0.14"
       inkscape:randomized="0"
       d="m 180.51198,62.097705 c -0.20586,0 -1.35781,0.0096 -1.46074,-0.168671 -0.10293,-0.178283 0.48136,-1.171093 0.58429,-1.349375 0.10293,-0.178283 0.67059,-1.180703 0.87645,-1.180703 0.20586,0 0.77351,1.00242 0.87644,1.180703 0.10293,0.178282 0.68723,1.171092 0.5843,1.349375 -0.10293,0.178282 -1.25488,0.168671 -1.46074,0.168671 z"
       inkscape:transform-center-x="1.2353693"
       inkscape:transform-center-y="1.3471756"
       transform="matrix(0.93973969,1.6276769,-1.6276769,0.93973969,91.781981,-243.53783)" /><path
       sodipodi:type="star"
       style="fill:none;fill-opacity:1;stroke:#000000;stroke-width:1;stroke-linecap:round;stroke-dasharray:none;stroke-opacity:1"
       id="path22"
       inkscape:flatsided="false"
       sodipodi:sides="3"
       sodipodi:cx="180.51198"
       sodipodi:cy="61.085674"
       sodipodi:r1="1.0120312"
       sodipodi:r2="1.6867187"
       sodipodi:arg1="1.5707963"
       sodipodi:arg2="2.6179939"
       inkscape:rounded="0.14"
       inkscape:randomized="0"
       d="m 180.51198,62.097705 c -0.20586,0 -1.35781,0.0096 -1.46074,-0.168671 -0.10293,-0.178283 0.48136,-1.171093 0.58429,-1.349375 0.10293,-0.178283 0.67059,-1.180703 0.87645,-1.180703 0.20586,0 0.77351,1.00242 0.87644,1.180703 0.10293,0.178282 0.68723,1.171092 0.5843,1.349375 -0.10293,0.178282 -1.25488,0.168671 -1.46074,0.168671 z"
       inkscape:transform-center-x="1.2353696"
       inkscape:transform-center-y="1.3471775"
       transform="matrix(0.93973969,1.6276769,-1.6276769,0.93973969,115.42905,-243.44992)" /><path
       sodipodi:type="star"
       style="fill:none;fill-opacity:1;stroke:#000000;stroke-width:1;stroke-linecap:round;stroke-dasharray:none;stroke-opacity:1"
       id="path23"
       inkscape:flatsided="false"
       sodipodi:sides="3"
       sodipodi:cx="180.51198"
       sodipodi:cy="61.085674"
       sodipodi:r1="1.0120312"
       sodipodi:r2="1.6867187"
       sodipodi:arg1="1.5707963"
       sodipodi:arg2="2.6179939"
       inkscape:rounded="0.14"
       inkscape:randomized="0"
       d="m 180.51198,62.097705 c -0.20586,0 -1.35781,0.0096 -1.46074,-0.168671 -0.10293,-0.178283 0.48136,-1.171093 0.58429,-1.349375 0.10293,-0.178283 0.67059,-1.180703 0.87645,-1.180703 0.20586,0 0.77351,1.00242 0.87644,1.180703 0.10293,0.178282 0.68723,1.171092 0.5843,1.349375 -0.10293,0.178282 -1.25488,0.168671 -1.46074,0.168671 z"
       inkscape:transform-center-x="1.2353721"
       inkscape:transform-center-y="1.3471803"
       transform="matrix(0.93973969,1.6276769,-1.6276769,0.93973969,103.64947,-263.93233)" /><path
       sodipodi:type="star"
       style="fill:none;fill-opacity:1;stroke:#000000;stroke-width:1;stroke-linecap:round;stroke-dasharray:none;stroke-opacity:1"
       id="path24"
       inkscape:flatsided="false"
       sodipodi:sides="3"
       sodipodi:cx="180.51198"
       sodipodi:cy="61.085674"
       sodipodi:r1="1.0120312"
       sodipodi:r2="1.6867187"
       sodipodi:arg1="1.5707963"
       sodipodi:arg2="2.6179939"
       inkscape:rounded="0.14"
       inkscape:randomized="0"
       d="m 180.51198,62.097705 c -0.20586,0 -1.35781,0.0096 -1.46074,-0.168671 -0.10293,-0.178283 0.48136,-1.171093 0.58429,-1.349375 0.10293,-0.178283 0.67059,-1.180703 0.87645,-1.180703 0.20586,0 0.77351,1.00242 0.87644,1.180703 0.10293,0.178282 0.68723,1.171092 0.5843,1.349375 -0.10293,0.178282 -1.25488,0.168671 -1.46074,0.168671 z"
       inkscape:transform-center-y="0.79253803"
       transform="matrix(1.8794794,0,0,1.8794794,-153.77514,-20.763041)" /><path
       sodipodi:type="star"
       style="fill:none;fill-opacity:1;stroke:#000000;stroke-width:1;stroke-linecap:round;stroke-dasharray:none;stroke-opacity:1"
       id="path25"
       inkscape:flatsided="false"
       sodipodi:sides="3"
       sodipodi:cx="180.51198"
       sodipodi:cy="61.085674"
       sodipodi:r1="1.0120312"
       sodipodi:r2="1.6867187"
       sodipodi:arg1="1.5707963"
       sodipodi:arg2="2.6179939"
       inkscape:rounded="0.14"
       inkscape:randomized="0"
       d="m 180.51198,62.097705 c -0.20586,0 -1.35781,0.0096 -1.46074,-0.168671 -0.10293,-0.178283 0.48136,-1.171093 0.58429,-1.349375 0.10293,-0.178283 0.67059,-1.180703 0.87645,-1.180703 0.20586,0 0.77351,1.00242 0.87644,1.180703 0.10293,0.178282 0.68723,1.171092 0.5843,1.349375 -0.10293,0.178282 -1.25488,0.168671 -1.46074,0.168671 z"
       inkscape:transform-center-x="-1.9995454e-06"
       inkscape:transform-center-y="0.79253804"
       transform="matrix(1.8794794,0,0,1.8794794,-177.07058,-20.850948)" /><circle
       style="fill:none;fill-opacity:1;stroke:#000000;stroke-width:1.87948;stroke-linecap:round;stroke-dasharray:none;stroke-opacity:1"
       id="circle25"
       cx="105.34357"
       cy="49.158775"
       r="9.8841887" /><circle
       style="fill:none;fill-opacity:1;stroke:#000000;stroke-width:1.87948;stroke-linecap:round;stroke-dasharray:none;stroke-opacity:1"
       id="circle26"
       cx="105.34357"
       cy="49.158775"
       r="16.225925" /><path
       sodipodi:type="star"
       style="fill:none;fill-opacity:1;stroke:#000000;stroke-width:1;stroke-linecap:round;stroke-dasharray:none;stroke-opacity:1"
       id="path26"
       inkscape:flatsided="false"
       sodipodi:sides="3"
       sodipodi:cx="180.51198"
       sodipodi:cy="61.085674"
       sodipodi:r1="1.0120312"
       sodipodi:r2="1.6867187"
       sodipodi:arg1="1.5707963"
       sodipodi:arg2="2.6179939"
       inkscape:rounded="0.14"
       inkscape:randomized="0"
       d="m 180.51198,62.097705 c -0.20586,0 -1.35781,0.0096 -1.46074,-0.168671 -0.10293,-0.178283 0.48136,-1.171093 0.58429,-1.349375 0.10293,-0.178283 0.67059,-1.180703 0.87645,-1.180703 0.20586,0 0.77351,1.00242 0.87644,1.180703 0.10293,0.178282 0.68723,1.171092 0.5843,1.349375 -0.10293,0.178282 -1.25488,0.168671 -1.46074,0.168671 z"
       inkscape:transform-center-x="-3.1558437e-06"
       inkscape:transform-center-y="0.79253829"
       transform="matrix(1.8794794,0,0,1.8794794,-233.85871,-51.794326)" /><path
       sodipodi:type="star"
       style="fill:none;fill-opacity:1;stroke:#000000;stroke-width:1;stroke-linecap:round;stroke-dasharray:none;stroke-opacity:1"
       id="path27"
       inkscape:flatsided="false"
       sodipodi:sides="3"
       sodipodi:cx="180.51198"
       sodipodi:cy="61.085674"
       sodipodi:r1="1.0120312"
       sodipodi:r2="1.6867187"
       sodipodi:arg1="1.5707963"
       sodipodi:arg2="2.6179939"
       inkscape:rounded="0.14"
       inkscape:randomized="0"
       d="m 180.51198,62.097705 c -0.20586,0 -1.35781,0.0096 -1.46074,-0.168671 -0.10293,-0.178283 0.48136,-1.171093 0.58429,-1.349375 0.10293,-0.178283 0.67059,-1.180703 0.87645,-1.180703 0.20586,0 0.77351,1.00242 0.87644,1.180703 0.10293,0.178282 0.68723,1.171092 0.5843,1.349375 -0.10293,0.178282 -1.25488,0.168671 -1.46074,0.168671 z"
       inkscape:transform-center-x="1.2353694"
       inkscape:transform-center-y="1.3471804"
       transform="matrix(0.93973969,1.6276769,-1.6276769,0.93973969,23.214272,-295.22734)" /><path
       sodipodi:type="star"
       style="fill:none;fill-opacity:1;stroke:#000000;stroke-width:1;stroke-linecap:round;stroke-dasharray:none;stroke-opacity:1"
       id="path28"
       inkscape:flatsided="false"
       sodipodi:sides="3"
       sodipodi:cx="180.51198"
       sodipodi:cy="61.085674"
       sodipodi:r1="1.0120312"
       sodipodi:r2="1.6867187"
       sodipodi:arg1="1.5707963"
       sodipodi:arg2="2.6179939"
       inkscape:rounded="0.14"
       inkscape:randomized="0"
       d="m 180.51198,62.097705 c -0.20586,0 -1.35781,0.0096 -1.46074,-0.168671 -0.10293,-0.178283 0.48136,-1.171093 0.58429,-1.349375 0.10293,-0.178283 0.67059,-1.180703 0.87645,-1.180703 0.20586,0 0.77351,1.00242 0.87644,1.180703 0.10293,0.178282 0.68723,1.171092 0.5843,1.349375 -0.10293,0.178282 -1.25488,0.168671 -1.46074,0.168671 z"
       inkscape:transform-center-x="1.2353687"
       inkscape:transform-center-y="1.3471822"
       transform="matrix(0.93973969,1.6276769,-1.6276769,0.93973969,46.861342,-295.13943)" /><path
       sodipodi:type="star"
       style="fill:none;fill-opacity:1;stroke:#000000;stroke-width:1;stroke-linecap:round;stroke-dasharray:none;stroke-opacity:1"
       id="path29"
       inkscape:flatsided="false"
       sodipodi:sides="3"
       sodipodi:cx="180.51198"
       sodipodi:cy="61.085674"
       sodipodi:r1="1.0120312"
       sodipodi:r2="1.6867187"
       sodipodi:arg1="1.5707963"
       sodipodi:arg2="2.6179939"
       inkscape:rounded="0.14"
       inkscape:randomized="0"
       d="m 180.51198,62.097705 c -0.20586,0 -1.35781,0.0096 -1.46074,-0.168671 -0.10293,-0.178283 0.48136,-1.171093 0.58429,-1.349375 0.10293,-0.178283 0.67059,-1.180703 0.87645,-1.180703 0.20586,0 0.77351,1.00242 0.87644,1.180703 0.10293,0.178282 0.68723,1.171092 0.5843,1.349375 -0.10293,0.178282 -1.25488,0.168671 -1.46074,0.168671 z"
       inkscape:transform-center-x="1.2353692"
       inkscape:transform-center-y="1.3471751"
       transform="matrix(0.93973969,1.6276769,-1.6276769,0.93973969,35.081764,-315.62185)" /><path
       sodipodi:type="star"
       style="fill:none;fill-opacity:1;stroke:#000000;stroke-width:1;stroke-linecap:round;stroke-dasharray:none;stroke-opacity:1"
       id="path30"
       inkscape:flatsided="false"
       sodipodi:sides="3"
       sodipodi:cx="180.51198"
       sodipodi:cy="61.085674"
       sodipodi:r1="1.0120312"
       sodipodi:r2="1.6867187"
       sodipodi:arg1="1.5707963"
       sodipodi:arg2="2.6179939"
       inkscape:rounded="0.14"
       inkscape:randomized="0"
       d="m 180.51198,62.097705 c -0.20586,0 -1.35781,0.0096 -1.46074,-0.168671 -0.10293,-0.178283 0.48136,-1.171093 0.58429,-1.349375 0.10293,-0.178283 0.67059,-1.180703 0.87645,-1.180703 0.20586,0 0.77351,1.00242 0.87644,1.180703 0.10293,0.178282 0.68723,1.171092 0.5843,1.349375 -0.10293,0.178282 -1.25488,0.168671 -1.46074,0.168671 z"
       inkscape:transform-center-x="-1.0735108e-06"
       inkscape:transform-center-y="0.79253784"
       transform="matrix(1.8794794,0,0,1.8794794,-222.34286,-72.452547)" /><path
       sodipodi:type="star"
       style="fill:none;fill-opacity:1;stroke:#000000;stroke-width:1;stroke-linecap:round;stroke-dasharray:none;stroke-opacity:1"
       id="path31"
       inkscape:flatsided="false"
       sodipodi:sides="3"
       sodipodi:cx="180.51198"
       sodipodi:cy="61.085674"
       sodipodi:r1="1.0120312"
       sodipodi:r2="1.6867187"
       sodipodi:arg1="1.5707963"
       sodipodi:arg2="2.6179939"
       inkscape:rounded="0.14"
       inkscape:randomized="0"
       d="m 180.51198,62.097705 c -0.20586,0 -1.35781,0.0096 -1.46074,-0.168671 -0.10293,-0.178283 0.48136,-1.171093 0.58429,-1.349375 0.10293,-0.178283 0.67059,-1.180703 0.87645,-1.180703 0.20586,0 0.77351,1.00242 0.87644,1.180703 0.10293,0.178282 0.68723,1.171092 0.5843,1.349375 -0.10293,0.178282 -1.25488,0.168671 -1.46074,0.168671 z"
       inkscape:transform-center-x="-3.7847591e-06"
       inkscape:transform-center-y="0.79253785"
       transform="matrix(1.8794794,0,0,1.8794794,-245.63829,-72.540454)" /><circle
       style="fill:none;fill-opacity:1;stroke:#000000;stroke-width:1.87948;stroke-linecap:round;stroke-dasharray:none;stroke-opacity:1"
       id="circle55"
       cx="105.34357"
       cy="152.8894"
       r="24.926876" /><circle
       style="fill:none;fill-opacity:1;stroke:#000000;stroke-width:1.87948;stroke-linecap:round;stroke-dasharray:none;stroke-opacity:1"
       id="circle56"
       cx="105.34357"
       cy="152.8894"
       r="18.090723" /><path
       sodipodi:type="star"
       style="fill:none;fill-opacity:1;stroke:#000000;stroke-width:1;stroke-linecap:round;stroke-dasharray:none;stroke-opacity:1"
       id="path57"
       inkscape:flatsided="false"
       sodipodi:sides="3"
       sodipodi:cx="180.51198"
       sodipodi:cy="61.085674"
       sodipodi:r1="1.0120312"
       sodipodi:r2="1.6867187"
       sodipodi:arg1="1.5707963"
       sodipodi:arg2="2.6179939"
       inkscape:rounded="0.14"
       inkscape:randomized="0"
       d="m 180.51198,62.097705 c -0.20586,0 -1.35781,0.0096 -1.46074,-0.168671 -0.10293,-0.178283 0.48136,-1.171093 0.58429,-1.349375 0.10293,-0.178283 0.67059,-1.180703 0.87645,-1.180703 0.20586,0 0.77351,1.00242 0.87644,1.180703 0.10293,0.178282 0.68723,1.171092 0.5843,1.349375 -0.10293,0.178282 -1.25488,0.168671 -1.46074,0.168671 z"
       inkscape:transform-center-x="1.2353695"
       inkscape:transform-center-y="1.3471762"
       transform="matrix(0.93973969,1.6276769,-1.6276769,0.93973969,35.148962,-220.58751)" /><path
       sodipodi:type="star"
       style="fill:none;fill-opacity:1;stroke:#000000;stroke-width:1;stroke-linecap:round;stroke-dasharray:none;stroke-opacity:1"
       id="path61"
       inkscape:flatsided="false"
       sodipodi:sides="3"
       sodipodi:cx="180.51198"
       sodipodi:cy="61.085674"
       sodipodi:r1="1.0120312"
       sodipodi:r2="1.6867187"
       sodipodi:arg1="1.5707963"
       sodipodi:arg2="2.6179939"
       inkscape:rounded="0.14"
       inkscape:randomized="0"
       d="m 180.51198,62.097705 c -0.20586,0 -1.35781,0.0096 -1.46074,-0.168671 -0.10293,-0.178283 0.48136,-1.171093 0.58429,-1.349375 0.10293,-0.178283 0.67059,-1.180703 0.87645,-1.180703 0.20586,0 0.77351,1.00242 0.87644,1.180703 0.10293,0.178282 0.68723,1.171092 0.5843,1.349375 -0.10293,0.178282 -1.25488,0.168671 -1.46074,0.168671 z"
       inkscape:transform-center-x="1.2353671"
       inkscape:transform-center-y="-1.3471785"
       transform="matrix(0.93973969,-1.6276769,-1.6276769,-0.93973969,35.148984,526.54827)" /><path
       sodipodi:type="star"
       style="fill:none;fill-opacity:1;stroke:#000000;stroke-width:1;stroke-linecap:round;stroke-dasharray:none;stroke-opacity:1"
       id="path62"
       inkscape:flatsided="false"
       sodipodi:sides="3"
       sodipodi:cx="180.51198"
       sodipodi:cy="61.085674"
       sodipodi:r1="1.0120312"
       sodipodi:r2="1.6867187"
       sodipodi:arg1="1.5707963"
       sodipodi:arg2="2.6179939"
       inkscape:rounded="0.14"
       inkscape:randomized="0"
       d="m 180.51198,62.097705 c -0.20586,0 -1.35781,0.0096 -1.46074,-0.168671 -0.10293,-0.178283 0.48136,-1.171093 0.58429,-1.349375 0.10293,-0.178283 0.67059,-1.180703 0.87645,-1.180703 0.20586,0 0.77351,1.00242 0.87644,1.180703 0.10293,0.178282 0.68723,1.171092 0.5843,1.349375 -0.10293,0.178282 -1.25488,0.168671 -1.46074,0.168671 z"
       inkscape:transform-center-x="1.0017349"
       inkscape:transform-center-y="-0.74534846"
       transform="matrix(-0.48644506,1.8154377,-1.8154377,-0.48644506,319.95662,-160.36278)" /><path
       sodipodi:type="star"
       style="fill:none;fill-opacity:1;stroke:#000000;stroke-width:1;stroke-linecap:round;stroke-dasharray:none;stroke-opacity:1"
       id="path63"
       inkscape:flatsided="false"
       sodipodi:sides="3"
       sodipodi:cx="180.51198"
       sodipodi:cy="61.085674"
       sodipodi:r1="1.0120312"
       sodipodi:r2="1.6867187"
       sodipodi:arg1="1.5707963"
       sodipodi:arg2="2.6179939"
       inkscape:rounded="0.14"
       inkscape:randomized="0"
       d="m 180.51198,62.097705 c -0.20586,0 -1.35781,0.0096 -1.46074,-0.168671 -0.10293,-0.178283 0.48136,-1.171093 0.58429,-1.349375 0.10293,-0.178283 0.67059,-1.180703 0.87645,-1.180703 0.20586,0 0.77351,1.00242 0.87644,1.180703 0.10293,0.178282 0.68723,1.171092 0.5843,1.349375 -0.10293,0.178282 -1.25488,0.168671 -1.46074,0.168671 z"
       inkscape:transform-center-x="0.74535157"
       inkscape:transform-center-y="-1.0017137"
       transform="matrix(1.8154377,-0.48644505,-0.48644505,-1.8154377,-208.34813,367.94201)" /><path
       sodipodi:type="star"
       style="fill:none;fill-opacity:1;stroke:#000000;stroke-width:1;stroke-linecap:round;stroke-dasharray:none;stroke-opacity:1"
       id="path64"
       inkscape:flatsided="false"
       sodipodi:sides="3"
       sodipodi:cx="180.51198"
       sodipodi:cy="61.085674"
       sodipodi:r1="1.0120312"
       sodipodi:r2="1.6867187"
       sodipodi:arg1="1.5707963"
       sodipodi:arg2="2.6179939"
       inkscape:rounded="0.14"
       inkscape:randomized="0"
       d="m 180.51198,62.097705 c -0.20586,0 -1.35781,0.0096 -1.46074,-0.168671 -0.10293,-0.178283 0.48136,-1.171093 0.58429,-1.349375 0.10293,-0.178283 0.67059,-1.180703 0.87645,-1.180703 0.20586,0 0.77351,1.00242 0.87644,1.180703 0.10293,0.178282 0.68723,1.171092 0.5843,1.349375 -0.10293,0.178282 -1.25488,0.168671 -1.46074,0.168671 z"
       inkscape:transform-center-x="1.3471767"
       inkscape:transform-center-y="-1.2353695"
       transform="matrix(-1.6276769,0.93973969,-0.93973969,-1.6276769,479.10206,83.092463)" /><path
       sodipodi:type="star"
       style="fill:none;fill-opacity:1;stroke:#000000;stroke-width:1;stroke-linecap:round;stroke-dasharray:none;stroke-opacity:1"
       id="path65"
       inkscape:flatsided="false"
       sodipodi:sides="3"
       sodipodi:cx="180.51198"
       sodipodi:cy="61.085674"
       sodipodi:r1="1.0120312"
       sodipodi:r2="1.6867187"
       sodipodi:arg1="1.5707963"
       sodipodi:arg2="2.6179939"
       inkscape:rounded="0.14"
       inkscape:randomized="0"
       d="m 180.51198,62.097705 c -0.20586,0 -1.35781,0.0096 -1.46074,-0.168671 -0.10293,-0.178283 0.48136,-1.171093 0.58429,-1.349375 0.10293,-0.178283 0.67059,-1.180703 0.87645,-1.180703 0.20586,0 0.77351,1.00242 0.87644,1.180703 0.10293,0.178282 0.68723,1.171092 0.5843,1.349375 -0.10293,0.178282 -1.25488,0.168671 -1.46074,0.168671 z"
       inkscape:transform-center-x="-1.3471755"
       inkscape:transform-center-y="-1.235367"
       transform="matrix(1.6276769,0.93973969,0.93973969,-1.6276769,-268.03374,83.092475)" /><path
       sodipodi:type="star"
       style="fill:none;fill-opacity:1;stroke:#000000;stroke-width:1;stroke-linecap:round;stroke-dasharray:none;stroke-opacity:1"
       id="path66"
       inkscape:flatsided="false"
       sodipodi:sides="3"
       sodipodi:cx="180.51198"
       sodipodi:cy="61.085674"
       sodipodi:r1="1.0120312"
       sodipodi:r2="1.6867187"
       sodipodi:arg1="1.5707963"
       sodipodi:arg2="2.6179939"
       inkscape:rounded="0.14"
       inkscape:randomized="0"
       d="m 180.51198,62.097705 c -0.20586,0 -1.35781,0.0096 -1.46074,-0.168671 -0.10293,-0.178283 0.48136,-1.171093 0.58429,-1.349375 0.10293,-0.178283 0.67059,-1.180703 0.87645,-1.180703 0.20586,0 0.77351,1.00242 0.87644,1.180703 0.10293,0.178282 0.68723,1.171092 0.5843,1.349375 -0.10293,0.178282 -1.25488,0.168671 -1.46074,0.168671 z"
       inkscape:transform-center-x="-0.74535251"
       inkscape:transform-center-y="-1.0017252"
       transform="matrix(-1.8154377,-0.48644506,0.48644506,-1.8154377,418.87724,367.90012)" /><path
       sodipodi:type="star"
       style="fill:none;fill-opacity:1;stroke:#000000;stroke-width:1;stroke-linecap:round;stroke-dasharray:none;stroke-opacity:1"
       id="path67"
       inkscape:flatsided="false"
       sodipodi:sides="3"
       sodipodi:cx="180.51198"
       sodipodi:cy="61.085674"
       sodipodi:r1="1.0120312"
       sodipodi:r2="1.6867187"
       sodipodi:arg1="1.5707963"
       sodipodi:arg2="2.6179939"
       inkscape:rounded="0.14"
       inkscape:randomized="0"
       d="m 180.51198,62.097705 c -0.20586,0 -1.35781,0.0096 -1.46074,-0.168671 -0.10293,-0.178283 0.48136,-1.171093 0.58429,-1.349375 0.10293,-0.178283 0.67059,-1.180703 0.87645,-1.180703 0.20586,0 0.77351,1.00242 0.87644,1.180703 0.10293,0.178282 0.68723,1.171092 0.5843,1.349375 -0.10293,0.178282 -1.25488,0.168671 -1.46074,0.168671 z"
       inkscape:transform-center-x="-1.0017131"
       inkscape:transform-center-y="-0.74534754"
       transform="matrix(0.48644505,1.8154377,1.8154377,-0.48644505,-109.42747,-160.40462)" /><rect
       style="fill:none;stroke:#000000;stroke-width:1.87948;stroke-linecap:round;stroke-dasharray:none;stroke-opacity:1"
       id="rect122"
       width="48.080704"
       height="24.626719"
       x="12.529068"
       y="152.54594"
       ry="4.0625772"
       rx="0" /><text
       xml:space="preserve"
       style="font-size:10.6086px;line-height:1;text-align:center;text-anchor:middle;fill:#000000;fill-opacity:1;stroke:none;stroke-width:4.21291;stroke-linecap:round;stroke-dasharray:none;stroke-opacity:1"
       x="36.790142"
       y="168.0006"
       id="text123"><tspan
         sodipodi:role="line"
         id="tspan123"
         style="font-style:normal;font-variant:normal;font-weight:normal;font-stretch:normal;font-size:10.6086px;font-family:Calibri;-inkscape-font-specification:Calibri;fill:#000000;fill-opacity:1;stroke:none;stroke-width:4.21291"
         x="36.790142"
         y="168.0006">Utility</tspan></text><rect
       style="fill:none;stroke:#000000;stroke-width:1.87948;stroke-linecap:round;stroke-dasharray:none;stroke-opacity:1"
       id="rect123"
       width="48.080704"
       height="24.626719"
       x="12.529068"
       y="109.53132"
       ry="4.0625772"
       rx="0" /><text
       xml:space="preserve"
       style="font-size:10.6086px;line-height:1;text-align:center;text-anchor:middle;fill:#000000;fill-opacity:1;stroke:none;stroke-width:4.21291;stroke-linecap:round;stroke-dasharray:none;stroke-opacity:1"
       x="37.53606"
       y="119.01862"
       id="text124"><tspan
         sodipodi:role="line"
         id="tspan124"
         style="font-style:normal;font-variant:normal;font-weight:normal;font-stretch:normal;font-size:10.6086px;font-family:Calibri;-inkscape-font-specification:Calibri;fill:#000000;fill-opacity:1;stroke:none;stroke-width:4.21291"
         x="37.53606"
         y="119.01862">Default</tspan><tspan
         sodipodi:role="line"
         style="font-style:normal;font-variant:normal;font-weight:normal;font-stretch:normal;font-size:10.6086px;font-family:Calibri;-inkscape-font-specification:Calibri;fill:#000000;fill-opacity:1;stroke:none;stroke-width:4.21291"
         x="37.53606"
         y="129.99721"
         id="tspan128">Setup</tspan></text><rect
       style="fill:none;stroke:#000000;stroke-width:1.87948;stroke-linecap:round;stroke-dasharray:none;stroke-opacity:1"
       id="rect124"
       width="48.080704"
       height="24.626719"
       x="12.529068"
       y="66.765335"
       ry="4.0625772"
       rx="0" /><text
       xml:space="preserve"
       style="font-size:10.6086px;line-height:1;text-align:center;text-anchor:middle;fill:#000000;fill-opacity:1;stroke:none;stroke-width:4.21291;stroke-linecap:round;stroke-dasharray:none;stroke-opacity:1"
       x="37.287415"
       y="76.25264"
       id="text125"><tspan
         sodipodi:role="line"
         id="tspan125"
         style="font-style:normal;font-variant:normal;font-weight:normal;font-stretch:normal;font-size:10.6086px;font-family:Calibri;-inkscape-font-specification:Calibri;fill:#000000;fill-opacity:1;stroke:none;stroke-width:4.21291"
         x="37.287415"
         y="76.25264">Save/</tspan><tspan
         sodipodi:role="line"
         style="font-style:normal;font-variant:normal;font-weight:normal;font-stretch:normal;font-size:10.6086px;font-family:Calibri;-inkscape-font-specification:Calibri;fill:#000000;fill-opacity:1;stroke:none;stroke-width:4.21291"
         x="37.287415"
         y="87.231224"
         id="tspan127">Recall</tspan></text><rect
       style="fill:none;stroke:#000000;stroke-width:1.87948;stroke-linecap:round;stroke-dasharray:none;stroke-opacity:1"
       id="rect125"
       width="48.080704"
       height="24.626719"
       x="12.529068"
       y="24.247984"
       ry="4.0625772"
       rx="0" /><text
       xml:space="preserve"
       style="font-size:10.6086px;line-height:1;text-align:center;text-anchor:middle;fill:#000000;fill-opacity:1;stroke:none;stroke-width:4.21291;stroke-linecap:round;stroke-dasharray:none;stroke-opacity:1"
       x="36.790142"
       y="39.702644"
       id="text126"><tspan
         sodipodi:role="line"
         id="tspan126"
         style="font-style:normal;font-variant:normal;font-weight:normal;font-stretch:normal;font-size:10.6086px;font-family:Calibri;-inkscape-font-specification:Calibri;fill:#000000;fill-opacity:1;stroke:none;stroke-width:4.21291"
         x="36.790142"
         y="39.702644">Measure</tspan></text><rect
       style="fill:none;stroke:#000000;stroke-width:1.87948;stroke-linecap:round;stroke-dasharray:none;stroke-opacity:1"
       id="rect128"
       width="48.080704"
       height="24.626719"
       x="80.9049"
       y="88.645599"
       ry="4.0625772"
       rx="0" /><text
       xml:space="preserve"
       style="font-size:10.6086px;line-height:1;text-align:center;text-anchor:middle;fill:#000000;fill-opacity:1;stroke:none;stroke-width:4.21291;stroke-linecap:round;stroke-dasharray:none;stroke-opacity:1"
       x="105.16597"
       y="104.10025"
       id="text129"><tspan
         sodipodi:role="line"
         id="tspan129"
         style="font-style:normal;font-variant:normal;font-weight:normal;font-stretch:normal;font-size:10.6086px;font-family:Calibri;-inkscape-font-specification:Calibri;fill:#000000;fill-opacity:1;stroke:none;stroke-width:4.21291"
         x="105.16597"
         y="104.10025">Acquire</tspan></text><rect
       style="fill:none;stroke:#000000;stroke-width:1.87948;stroke-linecap:round;stroke-dasharray:none;stroke-opacity:1"
       id="rect129"
       width="64.789993"
       height="179.35313"
       x="72.834198"
       y="4.5643454"
       ry="4.0625772"
       rx="0" /><rect
       style="fill:none;stroke:#000000;stroke-width:1.87948;stroke-linecap:round;stroke-dasharray:none;stroke-opacity:1"
       id="rect130"
       width="64.789986"
       height="166.79631"
       x="72.834198"
       y="17.121172"
       ry="4.0625772"
       rx="0" /><text
       xml:space="preserve"
       style="font-size:10.6086px;line-height:1;text-align:center;text-anchor:middle;fill:#000000;fill-opacity:1;stroke:none;stroke-width:4.21291;stroke-linecap:round;stroke-dasharray:none;stroke-opacity:1"
       x="104.34353"
       y="13.618908"
       id="text130"><tspan
         sodipodi:role="line"
         id="tspan130"
         style="font-style:normal;font-variant:normal;font-weight:normal;font-stretch:normal;font-size:10.6086px;font-family:Calibri;-inkscape-font-specification:Calibri;fill:#000000;fill-opacity:1;stroke:none;stroke-width:4.21291"
         x="104.34353"
         y="13.618908">Horizontal</tspan></text><rect
       style="fill:none;stroke:#000000;stroke-width:1.87948;stroke-linecap:round;stroke-dasharray:none;stroke-opacity:1"
       id="rect131"
       width="64.789993"
       height="179.35313"
       x="4.2665114"
       y="4.5643454"
       ry="4.0625772"
       rx="0" /><rect
       style="fill:none;stroke:#000000;stroke-width:1.87948;stroke-linecap:round;stroke-dasharray:none;stroke-opacity:1"
       id="rect132"
       width="64.789986"
       height="166.79631"
       x="4.2665114"
       y="17.121172"
       ry="4.0625772"
       rx="0" /><text
       xml:space="preserve"
       style="font-size:10.6086px;line-height:1;text-align:center;text-anchor:middle;fill:#000000;fill-opacity:1;stroke:none;stroke-width:4.21291;stroke-linecap:round;stroke-dasharray:none;stroke-opacity:1"
       x="35.775826"
       y="13.618908"
       id="text132"><tspan
         sodipodi:role="line"
         id="tspan132"
         style="font-style:normal;font-variant:normal;font-weight:normal;font-stretch:normal;font-size:10.6086px;font-family:Calibri;-inkscape-font-specification:Calibri;fill:#000000;fill-opacity:1;stroke:none;stroke-width:4.21291"
         x="35.775826"
         y="13.618908">Resources</tspan></text><text
       xml:space="preserve"
       style="font-size:10.6086px;line-height:1;text-align:center;text-anchor:middle;fill:#000000;fill-opacity:1;stroke:none;stroke-width:4.21291;stroke-linecap:round;stroke-dasharray:none;stroke-opacity:1"
       x="105.289"
       y="28.287312"
       id="text135"><tspan
         sodipodi:role="line"
         id="tspan135"
         style="font-style:normal;font-variant:normal;font-weight:normal;font-stretch:normal;font-size:10.6086px;font-family:Calibri;-inkscape-font-specification:Calibri;fill:#000000;fill-opacity:1;stroke:none;stroke-width:4.21291"
         x="105.289"
         y="28.287312">Position</tspan></text><text
       xml:space="preserve"
       style="font-size:10.6086px;line-height:1;text-align:center;text-anchor:middle;fill:#000000;fill-opacity:1;stroke:none;stroke-width:4.21291;stroke-linecap:round;stroke-dasharray:none;stroke-opacity:1"
       x="105.289"
       y="124.2821"
       id="text136"><tspan
         sodipodi:role="line"
         id="tspan136"
         style="font-style:normal;font-variant:normal;font-weight:normal;font-stretch:normal;font-size:10.6086px;font-family:Calibri;-inkscape-font-specification:Calibri;fill:#000000;fill-opacity:1;stroke:none;stroke-width:4.21291"
         x="105.289"
         y="124.2821">Scale</tspan></text><text
       xml:space="preserve"
       style="font-style:normal;font-variant:normal;font-weight:normal;font-stretch:normal;font-size:5.64444px;line-height:1;font-family:Calibri;-inkscape-font-specification:Calibri;text-align:center;text-anchor:middle;fill:none;fill-opacity:1;stroke:#000000;stroke-width:1.9;stroke-linecap:square;stroke-dasharray:none;stroke-opacity:1"
       x="47.095833"
       y="81.227081"
       id="text137"><tspan
         sodipodi:role="line"
         id="tspan137"
         style="stroke-width:1.9"
         x="47.095833"
         y="81.227081" /></text><text
       xml:space="preserve"
       style="font-size:7.95646px;line-height:1;text-align:center;text-anchor:middle;fill:#000000;fill-opacity:1;stroke:none;stroke-width:4.21291;stroke-linecap:round;stroke-dasharray:none;stroke-opacity:1"
       x="173.79048"
       y="128.06664"
       id="text138"><tspan
         sodipodi:role="line"
         id="tspan138"
         style="font-style:normal;font-variant:normal;font-weight:normal;font-stretch:normal;font-size:7.95646px;font-family:Calibri;-inkscape-font-specification:Calibri;fill:#000000;fill-opacity:1;stroke:none;stroke-width:4.21291"
         x="173.79048"
         y="128.06664">Push to Set 50%</tspan></text><text
       xml:space="preserve"
       style="font-size:7.95646px;line-height:1;text-align:center;text-anchor:middle;fill:#000000;fill-opacity:1;stroke:none;stroke-width:4.21291;stroke-linecap:round;stroke-dasharray:none;stroke-opacity:1"
       x="104.66872"
       y="75.355064"
       id="text139"><tspan
         sodipodi:role="line"
         id="tspan139"
         style="font-style:normal;font-variant:normal;font-weight:normal;font-stretch:normal;font-size:7.95646px;font-family:Calibri;-inkscape-font-specification:Calibri;fill:#000000;fill-opacity:1;stroke:none;stroke-width:4.21291"
         x="104.66872"
         y="75.355064">Push to center</tspan></text></g></svg>
